<svg version="1.1" viewBox="0.0 0.0 369.03937007874015 100.22572178477691" fill="none" stroke="none" stroke-linecap="square" stroke-miterlimit="10" xmlns:xlink="http://www.w3.org/1999/xlink" xmlns="http://www.w3.org/2000/svg"><clipPath id="p.0"><path d="m0 0l369.03937 0l0 100.22572l-369.03937 0l0 -100.22572z" clip-rule="nonzero"/></clipPath><g clip-path="url(#p.0)"><path fill="#000000" fill-opacity="0.0" d="m0 0l369.03937 0l0 100.22572l-369.03937 0z" fill-rule="evenodd"/><path fill="#a7291e" d="m190.89217 100.22572l0 -100.22572l142.51778 0l35.629425 50.112858l-35.629425 50.11286z" fill-rule="evenodd"/><path fill="#a7291e" d="m318.14886 0.001115223l-231.52756 0l0 100.09449l231.52756 0z" fill-rule="evenodd"/><path fill="#000000" fill-opacity="0.0" d="m94.101166 12.056457l249.48032 0l0 77.25984l-249.48032 0z" fill-rule="evenodd"/><path fill="#ffffff" d="m110.64804 36.252003l0 1.453125l-2.84375 0l0 7.78125l-1.6875 0l0 -7.78125l-2.84375 0l0 -1.453125l7.375 0zm3.121109 8.09375q0.734375 0 1.125 -0.078125l0 -1.78125q-0.125 -0.03125 -0.390625 -0.078125q-0.25 -0.046875 -0.546875 -0.046875q-0.265625 0 -0.546875 0.046875q-0.265625 0.046875 -0.5 0.15625q-0.21875 0.09375 -0.359375 0.296875q-0.125 0.1875 -0.125 0.484375q0 0.5625 0.359375 0.78125q0.359375 0.21875 0.984375 0.21875zm-0.140625 -6.0q0.796875 0 1.34375 0.203125q0.546875 0.1875 0.875 0.546875q0.328125 0.359375 0.46875 0.875q0.140625 0.515625 0.140625 1.125l0 4.234375q-0.375 0.078125 -1.125 0.1875q-0.75 0.109375 -1.703125 0.109375q-0.625 0 -1.15625 -0.125q-0.515625 -0.109375 -0.875 -0.375q-0.359375 -0.265625 -0.578125 -0.6875q-0.203125 -0.4375 -0.203125 -1.0625q0 -0.59375 0.234375 -1.0q0.234375 -0.421875 0.625 -0.671875q0.40625 -0.265625 0.9375 -0.375q0.53125 -0.125 1.09375 -0.125q0.265625 0 0.5625 0.03125q0.296875 0.03125 0.625 0.125l0 -0.265625q0 -0.28125 -0.0625 -0.53125q-0.0625 -0.265625 -0.234375 -0.453125q-0.171875 -0.203125 -0.453125 -0.296875q-0.265625 -0.109375 -0.671875 -0.109375q-0.5625 0 -1.03125 0.078125q-0.46875 0.078125 -0.75 0.1875l-0.203125 -1.3125q0.296875 -0.109375 0.875 -0.203125q0.59375 -0.109375 1.265625 -0.109375zm7.2265625 7.28125q-0.71875 -0.015625 -1.203125 -0.15625q-0.46875 -0.15625 -0.75 -0.421875q-0.28125 -0.28125 -0.390625 -0.6875q-0.109375 -0.40625 -0.109375 -0.921875l0 -8.03125l1.609375 -0.265625l0 7.984375q0 0.296875 0.046875 0.5q0.046875 0.1875 0.171875 0.328125q0.125 0.140625 0.328125 0.21875q0.203125 0.078125 0.515625 0.109375l-0.21875 1.34375zm3.145935 -4.390625q0.3125 -0.328125 0.65625 -0.6875q0.34375 -0.359375 0.671875 -0.71875q0.34375 -0.375 0.640625 -0.71875q0.296875 -0.34375 0.515625 -0.59375l1.90625 0q-0.671875 0.75 -1.421875 1.546875q-0.734375 0.796875 -1.484375 1.5625q0.40625 0.328125 0.84375 0.8125q0.4375 0.46875 0.84375 1.0q0.421875 0.53125 0.78125 1.0625q0.359375 0.53125 0.609375 0.984375l-1.875 0q-0.234375 -0.40625 -0.546875 -0.859375q-0.3125 -0.453125 -0.671875 -0.875q-0.359375 -0.4375 -0.734375 -0.8125q-0.375 -0.390625 -0.734375 -0.65625l0 3.203125l-1.609375 0l0 -10.078125l1.609375 -0.265625l0 6.09375zm8.7617035 -4.5625l1.609375 -0.265625l0 2.109375l2.46875 0l0 1.34375l-2.46875 0l0 2.84375q0 0.828125 0.265625 1.203125q0.265625 0.359375 0.90625 0.359375q0.4375 0 0.765625 -0.09375q0.34375 -0.09375 0.546875 -0.1875l0.265625 1.28125q-0.28125 0.125 -0.734375 0.25q-0.453125 0.125 -1.0625 0.125q-0.75 0 -1.25 -0.1875q-0.5 -0.203125 -0.796875 -0.578125q-0.28125 -0.390625 -0.40625 -0.921875q-0.109375 -0.546875 -0.109375 -1.234375l0 -6.046875zm11.786133 5.328125q0 0.8125 -0.25 1.5q-0.234375 0.671875 -0.671875 1.15625q-0.4375 0.484375 -1.0625 0.75q-0.609375 0.265625 -1.359375 0.265625q-0.75 0 -1.359375 -0.265625q-0.609375 -0.265625 -1.046875 -0.75q-0.4375 -0.484375 -0.6875 -1.15625q-0.25 -0.6875 -0.25 -1.5q0 -0.828125 0.25 -1.5q0.25 -0.6875 0.6875 -1.15625q0.453125 -0.484375 1.0625 -0.734375q0.609375 -0.265625 1.34375 -0.265625q0.734375 0 1.34375 0.265625q0.625 0.25 1.0625 0.734375q0.453125 0.46875 0.6875 1.15625q0.25 0.671875 0.25 1.5zm-1.65625 0q0 -1.046875 -0.453125 -1.65625q-0.4375 -0.609375 -1.234375 -0.609375q-0.796875 0 -1.25 0.609375q-0.4375 0.609375 -0.4375 1.65625q0 1.046875 0.4375 1.65625q0.453125 0.609375 1.25 0.609375q0.796875 0 1.234375 -0.609375q0.453125 -0.609375 0.453125 -1.65625zm10.075623 3.6875q-0.953125 0 -1.640625 -0.265625q-0.671875 -0.28125 -1.125 -0.765625q-0.4375 -0.5 -0.65625 -1.171875q-0.203125 -0.671875 -0.203125 -1.46875l0 -5.765625l1.6875 0l0 5.609375q0 0.625 0.140625 1.078125q0.140625 0.4375 0.390625 0.71875q0.265625 0.28125 0.609375 0.421875q0.359375 0.125 0.796875 0.125q0.453125 0 0.8125 -0.125q0.359375 -0.140625 0.609375 -0.421875q0.265625 -0.28125 0.40625 -0.71875q0.140625 -0.453125 0.140625 -1.078125l0 -5.609375l1.6875 0l0 5.765625q0 0.796875 -0.21875 1.46875q-0.21875 0.671875 -0.671875 1.171875q-0.4375 0.484375 -1.140625 0.765625q-0.6875 0.265625 -1.625 0.265625zm10.354019 -3.703125q0 -1.03125 -0.40625 -1.625q-0.40625 -0.609375 -1.296875 -0.609375q-0.390625 0 -0.75 0.125q-0.34375 0.125 -0.5625 0.265625l0 4.015625q0.171875 0.03125 0.4375 0.078125q0.28125 0.03125 0.671875 0.03125q0.890625 0 1.390625 -0.609375q0.515625 -0.609375 0.515625 -1.671875zm1.640625 0.015625q0 0.84375 -0.25 1.515625q-0.234375 0.671875 -0.703125 1.15625q-0.453125 0.484375 -1.109375 0.734375q-0.65625 0.25 -1.46875 0.25q-0.8125 0 -1.546875 -0.125q-0.71875 -0.109375 -1.1875 -0.265625l0 -9.859375l1.609375 -0.265625l0 3.609375q0.28125 -0.140625 0.6875 -0.265625q0.40625 -0.125 0.890625 -0.125q0.734375 0 1.3125 0.265625q0.59375 0.265625 0.96875 0.75q0.390625 0.46875 0.59375 1.140625q0.203125 0.671875 0.203125 1.484375zm7.396652 3.265625q-0.46875 0.125 -1.21875 0.25q-0.75 0.125 -1.640625 0.125q-0.84375 0 -1.40625 -0.234375q-0.5625 -0.234375 -0.90625 -0.65625q-0.34375 -0.4375 -0.484375 -1.03125q-0.140625 -0.59375 -0.140625 -1.296875l0 -3.90625l1.609375 0l0 3.65625q0 1.109375 0.328125 1.59375q0.328125 0.484375 1.140625 0.484375q0.28125 0 0.609375 -0.03125q0.328125 -0.03125 0.484375 -0.0625l0 -5.640625l1.625 0l0 6.75zm2.0515137 -6.53125q0.46875 -0.125 1.203125 -0.25q0.75 -0.125 1.65625 -0.125q0.859375 0 1.421875 0.234375q0.578125 0.234375 0.921875 0.65625q0.34375 0.421875 0.46875 1.015625q0.140625 0.59375 0.140625 1.296875l0 3.921875l-1.609375 0l0 -3.671875q0 -0.546875 -0.078125 -0.9375q-0.0625 -0.40625 -0.234375 -0.640625q-0.15625 -0.25 -0.453125 -0.359375q-0.28125 -0.125 -0.703125 -0.125q-0.296875 0 -0.640625 0.046875q-0.328125 0.03125 -0.484375 0.0625l0 5.625l-1.609375 0l0 -6.75zm7.718796 -2.0625l1.609375 -0.265625l0 2.109375l2.46875 0l0 1.34375l-2.46875 0l0 2.84375q0 0.828125 0.265625 1.203125q0.265625 0.359375 0.90625 0.359375q0.4375 0 0.765625 -0.09375q0.34375 -0.09375 0.546875 -0.1875l0.265625 1.28125q-0.28125 0.125 -0.734375 0.25q-0.453125 0.125 -1.0625 0.125q-0.75 0 -1.25 -0.1875q-0.5 -0.203125 -0.796875 -0.578125q-0.28125 -0.390625 -0.40625 -0.921875q-0.109375 -0.546875 -0.109375 -1.234375l0 -6.046875zm11.368011 8.59375q-0.46875 0.125 -1.21875 0.25q-0.75 0.125 -1.640625 0.125q-0.84375 0 -1.40625 -0.234375q-0.5625 -0.234375 -0.90625 -0.65625q-0.34375 -0.4375 -0.484375 -1.03125q-0.140625 -0.59375 -0.140625 -1.296875l0 -3.90625l1.609375 0l0 3.65625q0 1.109375 0.328125 1.59375q0.328125 0.484375 1.140625 0.484375q0.28125 0 0.609375 -0.03125q0.328125 -0.03125 0.484375 -0.0625l0 -5.640625l1.625 0l0 6.75zm7.610077 -0.921875q0.734375 0 1.125 -0.078125l0 -1.78125q-0.125 -0.03125 -0.390625 -0.078125q-0.25 -0.046875 -0.546875 -0.046875q-0.265625 0 -0.546875 0.046875q-0.265625 0.046875 -0.5 0.15625q-0.21875 0.09375 -0.359375 0.296875q-0.125 0.1875 -0.125 0.484375q0 0.5625 0.359375 0.78125q0.359375 0.21875 0.984375 0.21875zm-0.140625 -6.0q0.796875 0 1.34375 0.203125q0.546875 0.1875 0.875 0.546875q0.328125 0.359375 0.46875 0.875q0.140625 0.515625 0.140625 1.125l0 4.234375q-0.375 0.078125 -1.125 0.1875q-0.75 0.109375 -1.703125 0.109375q-0.625 0 -1.15625 -0.125q-0.515625 -0.109375 -0.875 -0.375q-0.359375 -0.265625 -0.578125 -0.6875q-0.203125 -0.4375 -0.203125 -1.0625q0 -0.59375 0.234375 -1.0q0.234375 -0.421875 0.625 -0.671875q0.40625 -0.265625 0.9375 -0.375q0.53125 -0.125 1.09375 -0.125q0.265625 0 0.5625 0.03125q0.296875 0.03125 0.625 0.125l0 -0.265625q0 -0.28125 -0.0625 -0.53125q-0.0625 -0.265625 -0.234375 -0.453125q-0.171875 -0.203125 -0.453125 -0.296875q-0.265625 -0.109375 -0.671875 -0.109375q-0.5625 0 -1.03125 0.078125q-0.46875 0.078125 -0.75 0.1875l-0.203125 -1.3125q0.296875 -0.109375 0.875 -0.203125q0.59375 -0.109375 1.265625 -0.109375zm8.7734375 1.625q-0.203125 -0.0625 -0.5625 -0.140625q-0.34375 -0.078125 -0.8125 -0.078125q-0.265625 0 -0.5625 0.0625q-0.296875 0.046875 -0.421875 0.09375l0 5.578125l-1.609375 0l0 -6.640625q0.46875 -0.171875 1.15625 -0.328125q0.703125 -0.15625 1.5625 -0.15625q0.15625 0 0.359375 0.03125q0.21875 0.015625 0.4375 0.046875q0.21875 0.03125 0.40625 0.078125q0.203125 0.046875 0.328125 0.09375l-0.28125 1.359375zm1.0118408 2.03125q0 -0.765625 0.234375 -1.4375q0.25 -0.671875 0.6875 -1.15625q0.453125 -0.5 1.09375 -0.78125q0.640625 -0.28125 1.4375 -0.28125q0.984375 0 1.859375 0.359375l-0.34375 1.3125q-0.28125 -0.109375 -0.640625 -0.1875q-0.34375 -0.09375 -0.75 -0.09375q-0.9375 0 -1.4375 0.59375q-0.484375 0.59375 -0.484375 1.671875q0 1.046875 0.453125 1.65625q0.46875 0.609375 1.578125 0.609375q0.421875 0 0.8125 -0.078125q0.40625 -0.09375 0.703125 -0.203125l0.21875 1.328125q-0.265625 0.125 -0.8125 0.234375q-0.53125 0.109375 -1.109375 0.109375q-0.890625 0 -1.546875 -0.265625q-0.65625 -0.28125 -1.09375 -0.765625q-0.4375 -0.484375 -0.65625 -1.15625q-0.203125 -0.671875 -0.203125 -1.46875zm6.681473 3.484375l0 -10.078125l1.609375 -0.265625l0 3.453125q0.265625 -0.09375 0.609375 -0.15625q0.359375 -0.078125 0.703125 -0.078125q0.84375 0 1.390625 0.234375q0.5625 0.234375 0.890625 0.65625q0.34375 0.421875 0.46875 1.015625q0.140625 0.578125 0.140625 1.296875l0 3.921875l-1.609375 0l0 -3.671875q0 -0.546875 -0.078125 -0.9375q-0.0625 -0.40625 -0.234375 -0.640625q-0.15625 -0.25 -0.4375 -0.359375q-0.28125 -0.125 -0.703125 -0.125q-0.3125 0 -0.65625 0.078125q-0.328125 0.0625 -0.484375 0.109375l0 5.546875l-1.609375 0zm9.381943 0l-1.609375 0l0 -6.96875l1.609375 0l0 6.96875zm0.171875 -9.015625q0 0.453125 -0.296875 0.71875q-0.296875 0.265625 -0.6875 0.265625q-0.421875 0 -0.71875 -0.265625q-0.28125 -0.265625 -0.28125 -0.71875q0 -0.453125 0.28125 -0.71875q0.296875 -0.28125 0.71875 -0.28125q0.390625 0 0.6875 0.28125q0.296875 0.265625 0.296875 0.71875zm3.662918 9.015625q-0.671875 -1.375 -1.375 -3.15625q-0.6875 -1.78125 -1.265625 -3.8125l1.71875 0q0.15625 0.578125 0.34375 1.265625q0.1875 0.671875 0.40625 1.34375q0.21875 0.671875 0.453125 1.3125q0.234375 0.625 0.4375 1.125q0.203125 -0.5 0.421875 -1.125q0.234375 -0.640625 0.453125 -1.3125q0.21875 -0.671875 0.421875 -1.34375q0.203125 -0.6875 0.34375 -1.265625l1.671875 0q-0.578125 2.03125 -1.28125 3.8125q-0.703125 1.78125 -1.359375 3.15625l-1.390625 0zm4.6786957 -3.453125q0 -0.921875 0.265625 -1.609375q0.28125 -0.6875 0.734375 -1.140625q0.453125 -0.46875 1.03125 -0.703125q0.59375 -0.234375 1.203125 -0.234375q1.4375 0 2.25 0.890625q0.8125 0.890625 0.8125 2.671875q0 0.125 -0.015625 0.296875q0 0.15625 -0.015625 0.296875l-4.59375 0q0.0625 0.84375 0.578125 1.3125q0.53125 0.453125 1.53125 0.453125q0.59375 0 1.078125 -0.109375q0.484375 -0.109375 0.765625 -0.234375l0.21875 1.328125q-0.140625 0.0625 -0.375 0.140625q-0.234375 0.0625 -0.53125 0.125q-0.296875 0.0625 -0.65625 0.09375q-0.34375 0.046875 -0.703125 0.046875q-0.90625 0 -1.59375 -0.265625q-0.671875 -0.28125 -1.125 -0.765625q-0.4375 -0.484375 -0.65625 -1.140625q-0.203125 -0.671875 -0.203125 -1.453125zm4.671875 -0.71875q0 -0.328125 -0.09375 -0.625q-0.09375 -0.3125 -0.28125 -0.53125q-0.171875 -0.21875 -0.4375 -0.34375q-0.25 -0.125 -0.609375 -0.125q-0.375 0 -0.65625 0.140625q-0.28125 0.140625 -0.46875 0.375q-0.1875 0.21875 -0.296875 0.515625q-0.109375 0.28125 -0.15625 0.59375l3.0 0zm5.0634613 3.015625q0.640625 0 0.9375 -0.15625q0.296875 -0.15625 0.296875 -0.53125q0 -0.34375 -0.3125 -0.5625q-0.3125 -0.234375 -1.03125 -0.5q-0.4375 -0.15625 -0.8125 -0.328125q-0.359375 -0.1875 -0.625 -0.421875q-0.265625 -0.25 -0.421875 -0.578125q-0.15625 -0.34375 -0.15625 -0.84375q0 -0.953125 0.703125 -1.5q0.703125 -0.5625 1.921875 -0.5625q0.609375 0 1.171875 0.109375q0.5625 0.109375 0.84375 0.21875l-0.296875 1.3125q-0.265625 -0.125 -0.6875 -0.21875q-0.40625 -0.109375 -0.953125 -0.109375q-0.484375 0 -0.796875 0.171875q-0.3125 0.171875 -0.3125 0.515625q0 0.171875 0.0625 0.3125q0.0625 0.125 0.203125 0.234375q0.15625 0.109375 0.390625 0.234375q0.234375 0.109375 0.59375 0.234375q0.5625 0.203125 0.953125 0.421875q0.40625 0.203125 0.671875 0.46875q0.265625 0.25 0.375 0.59375q0.125 0.328125 0.125 0.78125q0 1.0 -0.75 1.515625q-0.734375 0.515625 -2.09375 0.515625q-0.921875 0 -1.484375 -0.15625q-0.5625 -0.15625 -0.78125 -0.25l0.265625 -1.34375q0.375 0.15625 0.859375 0.296875q0.5 0.125 1.140625 0.125z" fill-rule="nonzero"/><path fill="#ffffff" d="m106.58554 62.345753q0.734375 0 1.125 -0.078125l0 -1.78125q-0.125 -0.03125 -0.390625 -0.078125q-0.25 -0.046875 -0.546875 -0.046875q-0.265625 0 -0.546875 0.046875q-0.265625 0.046875 -0.5 0.15625q-0.21875 0.09375 -0.359375 0.296875q-0.125 0.1875 -0.125 0.484375q0 0.5625 0.359375 0.78125q0.359375 0.21875 0.984375 0.21875zm-0.140625 -6.0q0.796875 0 1.34375 0.203125q0.546875 0.1875 0.875 0.546875q0.328125 0.359375 0.46875 0.875q0.140625 0.515625 0.140625 1.125l0 4.234375q-0.375 0.078125 -1.125 0.1875q-0.75 0.109375 -1.703125 0.109375q-0.625 0 -1.15625 -0.125q-0.515625 -0.109375 -0.875 -0.375q-0.359375 -0.265625 -0.578125 -0.6875q-0.203125 -0.4375 -0.203125 -1.0625q0 -0.59375 0.234375 -1.0q0.234375 -0.421875 0.625 -0.671875q0.40625 -0.265625 0.9375 -0.375q0.53125 -0.125 1.09375 -0.125q0.265625 0 0.5625 0.03125q0.296875 0.03125 0.625 0.125l0 -0.265625q0 -0.28125 -0.0625 -0.53125q-0.0625 -0.265625 -0.234375 -0.453125q-0.171875 -0.203125 -0.453125 -0.296875q-0.265625 -0.109375 -0.671875 -0.109375q-0.5625 0 -1.03125 0.078125q-0.46875 0.078125 -0.75 0.1875l-0.203125 -1.3125q0.296875 -0.109375 0.875 -0.203125q0.59375 -0.109375 1.265625 -0.109375zm4.8046875 0.390625q0.46875 -0.125 1.203125 -0.25q0.75 -0.125 1.65625 -0.125q0.859375 0 1.421875 0.234375q0.578125 0.234375 0.921875 0.65625q0.34375 0.421875 0.46875 1.015625q0.140625 0.59375 0.140625 1.296875l0 3.921875l-1.609375 0l0 -3.671875q0 -0.546875 -0.078125 -0.9375q-0.0625 -0.40625 -0.234375 -0.640625q-0.15625 -0.25 -0.453125 -0.359375q-0.28125 -0.125 -0.703125 -0.125q-0.296875 0 -0.640625 0.046875q-0.328125 0.03125 -0.484375 0.0625l0 5.625l-1.609375 0l0 -6.75zm9.062546 3.25q0 1.0625 0.5 1.671875q0.515625 0.609375 1.40625 0.609375q0.375 0 0.640625 -0.03125q0.28125 -0.046875 0.453125 -0.078125l0 -4.0q-0.203125 -0.15625 -0.5625 -0.28125q-0.34375 -0.125 -0.75 -0.125q-0.875 0 -1.28125 0.609375q-0.40625 0.59375 -0.40625 1.625zm4.625 3.28125q-0.484375 0.15625 -1.21875 0.265625q-0.71875 0.125 -1.515625 0.125q-0.828125 0 -1.484375 -0.25q-0.65625 -0.25 -1.109375 -0.71875q-0.453125 -0.484375 -0.703125 -1.15625q-0.25 -0.671875 -0.25 -1.515625q0 -0.828125 0.203125 -1.5q0.203125 -0.671875 0.609375 -1.140625q0.40625 -0.484375 0.96875 -0.75q0.578125 -0.265625 1.328125 -0.265625q0.5 0 0.890625 0.125q0.390625 0.125 0.65625 0.265625l0 -3.34375l1.625 -0.265625l0 10.125zm7.9864655 -10.125q0.5625 0 0.984375 0.109375q0.4375 0.09375 0.640625 0.171875l-0.296875 1.328125q-0.234375 -0.109375 -0.53125 -0.171875q-0.296875 -0.0625 -0.640625 -0.0625q-0.390625 0 -0.65625 0.109375q-0.265625 0.109375 -0.4375 0.3125q-0.15625 0.203125 -0.21875 0.5q-0.0625 0.28125 -0.0625 0.609375l0 0.46875l2.53125 0l0 1.34375l-2.53125 0l0 5.625l-1.609375 0l0 -7.46875q0 -1.34375 0.703125 -2.109375q0.703125 -0.765625 2.125 -0.765625zm1.9791565 6.890625q0 -0.921875 0.265625 -1.609375q0.28125 -0.6875 0.734375 -1.140625q0.453125 -0.46875 1.03125 -0.703125q0.59375 -0.234375 1.203125 -0.234375q1.4375 0 2.25 0.890625q0.8125 0.890625 0.8125 2.671875q0 0.125 -0.015625 0.296875q0 0.15625 -0.015625 0.296875l-4.59375 0q0.0625 0.84375 0.578125 1.3125q0.53125 0.453125 1.53125 0.453125q0.59375 0 1.078125 -0.109375q0.484375 -0.109375 0.765625 -0.234375l0.21875 1.328125q-0.140625 0.0625 -0.375 0.140625q-0.234375 0.0625 -0.53125 0.125q-0.296875 0.0625 -0.65625 0.09375q-0.34375 0.046875 -0.703125 0.046875q-0.90625 0 -1.59375 -0.265625q-0.671875 -0.28125 -1.125 -0.765625q-0.4375 -0.484375 -0.65625 -1.140625q-0.203125 -0.671875 -0.203125 -1.453125zm4.671875 -0.71875q0 -0.328125 -0.09375 -0.625q-0.09375 -0.3125 -0.28125 -0.53125q-0.171875 -0.21875 -0.4375 -0.34375q-0.25 -0.125 -0.609375 -0.125q-0.375 0 -0.65625 0.140625q-0.28125 0.140625 -0.46875 0.375q-0.1875 0.21875 -0.296875 0.515625q-0.109375 0.28125 -0.15625 0.59375l3.0 0zm3.2509613 -4.640625l1.609375 -0.265625l0 2.109375l2.46875 0l0 1.34375l-2.46875 0l0 2.84375q0 0.828125 0.265625 1.203125q0.265625 0.359375 0.90625 0.359375q0.4375 0 0.765625 -0.09375q0.34375 -0.09375 0.546875 -0.1875l0.265625 1.28125q-0.28125 0.125 -0.734375 0.25q-0.453125 0.125 -1.0625 0.125q-0.75 0 -1.25 -0.1875q-0.5 -0.203125 -0.796875 -0.578125q-0.28125 -0.390625 -0.40625 -0.921875q-0.109375 -0.546875 -0.109375 -1.234375l0 -6.046875zm5.111969 5.328125q0 -0.765625 0.234375 -1.4375q0.25 -0.671875 0.6875 -1.15625q0.453125 -0.5 1.09375 -0.78125q0.640625 -0.28125 1.4375 -0.28125q0.984375 0 1.859375 0.359375l-0.34375 1.3125q-0.28125 -0.109375 -0.640625 -0.1875q-0.34375 -0.09375 -0.75 -0.09375q-0.9375 0 -1.4375 0.59375q-0.484375 0.59375 -0.484375 1.671875q0 1.046875 0.453125 1.65625q0.46875 0.609375 1.578125 0.609375q0.421875 0 0.8125 -0.078125q0.40625 -0.09375 0.703125 -0.203125l0.21875 1.328125q-0.265625 0.125 -0.8125 0.234375q-0.53125 0.109375 -1.109375 0.109375q-0.890625 0 -1.546875 -0.265625q-0.65625 -0.28125 -1.09375 -0.765625q-0.4375 -0.484375 -0.65625 -1.15625q-0.203125 -0.671875 -0.203125 -1.46875zm6.681473 3.484375l0 -10.078125l1.609375 -0.265625l0 3.453125q0.265625 -0.09375 0.609375 -0.15625q0.359375 -0.078125 0.703125 -0.078125q0.84375 0 1.390625 0.234375q0.5625 0.234375 0.890625 0.65625q0.34375 0.421875 0.46875 1.015625q0.140625 0.578125 0.140625 1.296875l0 3.921875l-1.609375 0l0 -3.671875q0 -0.546875 -0.078125 -0.9375q-0.0625 -0.40625 -0.234375 -0.640625q-0.15625 -0.25 -0.4375 -0.359375q-0.28125 -0.125 -0.703125 -0.125q-0.3125 0 -0.65625 0.078125q-0.328125 0.0625 -0.484375 0.109375l0 5.546875l-1.609375 0zm15.487381 -3.453125q0 -1.078125 -0.5 -1.671875q-0.484375 -0.609375 -1.5625 -0.609375q-0.21875 0 -0.46875 0.03125q-0.25 0.015625 -0.484375 0.078125l0 3.984375q0.21875 0.140625 0.5625 0.28125q0.359375 0.125 0.75 0.125q0.890625 0 1.296875 -0.59375q0.40625 -0.609375 0.40625 -1.625zm1.640625 -0.03125q0 0.8125 -0.203125 1.484375q-0.203125 0.65625 -0.59375 1.140625q-0.375 0.46875 -0.96875 0.734375q-0.578125 0.265625 -1.3125 0.265625q-0.484375 0 -0.90625 -0.125q-0.40625 -0.109375 -0.671875 -0.25l0 2.7031212l-1.609375 0l0 -9.218746q0.484375 -0.125 1.203125 -0.25q0.71875 -0.125 1.53125 -0.125q0.8125 0 1.46875 0.265625q0.65625 0.25 1.109375 0.71875q0.46875 0.46875 0.703125 1.15625q0.25 0.671875 0.25 1.5zm4.131027 2.34375q0.734375 0 1.125 -0.078125l0 -1.78125q-0.125 -0.03125 -0.390625 -0.078125q-0.25 -0.046875 -0.546875 -0.046875q-0.265625 0 -0.546875 0.046875q-0.265625 0.046875 -0.5 0.15625q-0.21875 0.09375 -0.359375 0.296875q-0.125 0.1875 -0.125 0.484375q0 0.5625 0.359375 0.78125q0.359375 0.21875 0.984375 0.21875zm-0.140625 -6.0q0.796875 0 1.34375 0.203125q0.546875 0.1875 0.875 0.546875q0.328125 0.359375 0.46875 0.875q0.140625 0.515625 0.140625 1.125l0 4.234375q-0.375 0.078125 -1.125 0.1875q-0.75 0.109375 -1.703125 0.109375q-0.625 0 -1.15625 -0.125q-0.515625 -0.109375 -0.875 -0.375q-0.359375 -0.265625 -0.578125 -0.6875q-0.203125 -0.4375 -0.203125 -1.0625q0 -0.59375 0.234375 -1.0q0.234375 -0.421875 0.625 -0.671875q0.40625 -0.265625 0.9375 -0.375q0.53125 -0.125 1.09375 -0.125q0.265625 0 0.5625 0.03125q0.296875 0.03125 0.625 0.125l0 -0.265625q0 -0.28125 -0.0625 -0.53125q-0.0625 -0.265625 -0.234375 -0.453125q-0.171875 -0.203125 -0.453125 -0.296875q-0.265625 -0.109375 -0.671875 -0.109375q-0.5625 0 -1.03125 0.078125q-0.46875 0.078125 -0.75 0.1875l-0.203125 -1.3125q0.296875 -0.109375 0.875 -0.203125q0.59375 -0.109375 1.265625 -0.109375zm4.4140625 3.65625q0 -0.765625 0.234375 -1.4375q0.25 -0.671875 0.6875 -1.15625q0.453125 -0.5 1.09375 -0.78125q0.640625 -0.28125 1.4375 -0.28125q0.984375 0 1.859375 0.359375l-0.34375 1.3125q-0.28125 -0.109375 -0.640625 -0.1875q-0.34375 -0.09375 -0.75 -0.09375q-0.9375 0 -1.4375 0.59375q-0.484375 0.59375 -0.484375 1.671875q0 1.046875 0.453125 1.65625q0.46875 0.609375 1.578125 0.609375q0.421875 0 0.8125 -0.078125q0.40625 -0.09375 0.703125 -0.203125l0.21875 1.328125q-0.265625 0.125 -0.8125 0.234375q-0.53125 0.109375 -1.109375 0.109375q-0.890625 0 -1.546875 -0.265625q-0.65625 -0.28125 -1.09375 -0.765625q-0.4375 -0.484375 -0.65625 -1.15625q-0.203125 -0.671875 -0.203125 -1.46875zm8.290848 -0.765625q0.3125 -0.328125 0.65625 -0.6875q0.34375 -0.359375 0.671875 -0.71875q0.34375 -0.375 0.640625 -0.71875q0.296875 -0.34375 0.515625 -0.59375l1.90625 0q-0.671875 0.75 -1.421875 1.546875q-0.734375 0.796875 -1.484375 1.5625q0.40625 0.328125 0.84375 0.8125q0.4375 0.46875 0.84375 1.0q0.421875 0.53125 0.78125 1.0625q0.359375 0.53125 0.609375 0.984375l-1.875 0q-0.234375 -0.40625 -0.546875 -0.859375q-0.3125 -0.453125 -0.671875 -0.875q-0.359375 -0.4375 -0.734375 -0.8125q-0.375 -0.390625 -0.734375 -0.65625l0 3.203125l-1.609375 0l0 -10.078125l1.609375 -0.265625l0 6.09375zm8.187515 3.109375q0.734375 0 1.125 -0.078125l0 -1.78125q-0.125 -0.03125 -0.390625 -0.078125q-0.25 -0.046875 -0.546875 -0.046875q-0.265625 0 -0.546875 0.046875q-0.265625 0.046875 -0.5 0.15625q-0.21875 0.09375 -0.359375 0.296875q-0.125 0.1875 -0.125 0.484375q0 0.5625 0.359375 0.78125q0.359375 0.21875 0.984375 0.21875zm-0.140625 -6.0q0.796875 0 1.34375 0.203125q0.546875 0.1875 0.875 0.546875q0.328125 0.359375 0.46875 0.875q0.140625 0.515625 0.140625 1.125l0 4.234375q-0.375 0.078125 -1.125 0.1875q-0.75 0.109375 -1.703125 0.109375q-0.625 0 -1.15625 -0.125q-0.515625 -0.109375 -0.875 -0.375q-0.359375 -0.265625 -0.578125 -0.6875q-0.203125 -0.4375 -0.203125 -1.0625q0 -0.59375 0.234375 -1.0q0.234375 -0.421875 0.625 -0.671875q0.40625 -0.265625 0.9375 -0.375q0.53125 -0.125 1.09375 -0.125q0.265625 0 0.5625 0.03125q0.296875 0.03125 0.625 0.125l0 -0.265625q0 -0.28125 -0.0625 -0.53125q-0.0625 -0.265625 -0.234375 -0.453125q-0.171875 -0.203125 -0.453125 -0.296875q-0.265625 -0.109375 -0.671875 -0.109375q-0.5625 0 -1.03125 0.078125q-0.46875 0.078125 -0.75 0.1875l-0.203125 -1.3125q0.296875 -0.109375 0.875 -0.203125q0.59375 -0.109375 1.265625 -0.109375zm6.0703125 3.46875q0 1.03125 0.4375 1.515625q0.453125 0.46875 1.15625 0.46875q0.390625 0 0.71875 -0.109375q0.34375 -0.109375 0.5625 -0.25l0 -3.625q-0.171875 -0.03125 -0.4375 -0.0625q-0.25 -0.03125 -0.625 -0.03125q-0.890625 0 -1.359375 0.578125q-0.453125 0.578125 -0.453125 1.515625zm4.484375 2.96875q0 1.6562462 -0.84375 2.4218712q-0.84375 0.78125 -2.59375 0.78125q-0.640625 0 -1.25 -0.109375q-0.59375 -0.09375 -1.09375 -0.265625l0.296875 -1.375q0.40625 0.171875 0.9375 0.28125q0.53125 0.109375 1.140625 0.109375q0.96875 0 1.375 -0.40625q0.421875 -0.4062462 0.421875 -1.1874962l0 -0.265625q-0.234375 0.125 -0.640625 0.25q-0.390625 0.109375 -0.890625 0.109375q-0.671875 0 -1.234375 -0.203125q-0.546875 -0.21875 -0.9375 -0.625q-0.390625 -0.421875 -0.609375 -1.046875q-0.21875 -0.625 -0.21875 -1.4375q0 -0.75 0.234375 -1.390625q0.234375 -0.640625 0.671875 -1.09375q0.453125 -0.453125 1.09375 -0.703125q0.640625 -0.265625 1.453125 -0.265625q0.78125 0 1.484375 0.125q0.71875 0.125 1.203125 0.25l0 6.046875zm1.669632 -2.75q0 -0.921875 0.265625 -1.609375q0.28125 -0.6875 0.734375 -1.140625q0.453125 -0.46875 1.03125 -0.703125q0.59375 -0.234375 1.203125 -0.234375q1.4375 0 2.25 0.890625q0.8125 0.890625 0.8125 2.671875q0 0.125 -0.015625 0.296875q0 0.15625 -0.015625 0.296875l-4.59375 0q0.0625 0.84375 0.578125 1.3125q0.53125 0.453125 1.53125 0.453125q0.59375 0 1.078125 -0.109375q0.484375 -0.109375 0.765625 -0.234375l0.21875 1.328125q-0.140625 0.0625 -0.375 0.140625q-0.234375 0.0625 -0.53125 0.125q-0.296875 0.0625 -0.65625 0.09375q-0.34375 0.046875 -0.703125 0.046875q-0.90625 0 -1.59375 -0.265625q-0.671875 -0.28125 -1.125 -0.765625q-0.4375 -0.484375 -0.65625 -1.140625q-0.203125 -0.671875 -0.203125 -1.453125zm4.671875 -0.71875q0 -0.328125 -0.09375 -0.625q-0.09375 -0.3125 -0.28125 -0.53125q-0.171875 -0.21875 -0.4375 -0.34375q-0.25 -0.125 -0.609375 -0.125q-0.375 0 -0.65625 0.140625q-0.28125 0.140625 -0.46875 0.375q-0.1875 0.21875 -0.296875 0.515625q-0.109375 0.28125 -0.15625 0.59375l3.0 0zm5.0634613 3.015625q0.640625 0 0.9375 -0.15625q0.296875 -0.15625 0.296875 -0.53125q0 -0.34375 -0.3125 -0.5625q-0.3125 -0.234375 -1.03125 -0.5q-0.4375 -0.15625 -0.8125 -0.328125q-0.359375 -0.1875 -0.625 -0.421875q-0.265625 -0.25 -0.421875 -0.578125q-0.15625 -0.34375 -0.15625 -0.84375q0 -0.953125 0.703125 -1.5q0.703125 -0.5625 1.921875 -0.5625q0.609375 0 1.171875 0.109375q0.5625 0.109375 0.84375 0.21875l-0.296875 1.3125q-0.265625 -0.125 -0.6875 -0.21875q-0.40625 -0.109375 -0.953125 -0.109375q-0.484375 0 -0.796875 0.171875q-0.3125 0.171875 -0.3125 0.515625q0 0.171875 0.0625 0.3125q0.0625 0.125 0.203125 0.234375q0.15625 0.109375 0.390625 0.234375q0.234375 0.109375 0.59375 0.234375q0.5625 0.203125 0.953125 0.421875q0.40625 0.203125 0.671875 0.46875q0.265625 0.25 0.375 0.59375q0.125 0.328125 0.125 0.78125q0 1.0 -0.75 1.515625q-0.734375 0.515625 -2.09375 0.515625q-0.921875 0 -1.484375 -0.15625q-0.5625 -0.15625 -0.78125 -0.25l0.265625 -1.34375q0.375 0.15625 0.859375 0.296875q0.5 0.125 1.140625 0.125z" fill-rule="nonzero"/><g filter="url(#shadowFilter-p.1)"><use xlink:href="#p.1" transform="matrix(1.0 0.0 0.0 1.0 2.121320472440945 2.1213204724409525)"/></g><defs><filter id="shadowFilter-p.1" filterUnits="userSpaceOnUse"><feGaussianBlur in="SourceAlpha" stdDeviation="2.5" result="blur"/><feComponentTransfer in="blur" color-interpolation-filters="sRGB"><feFuncR type="linear" slope="0" intercept="0.0"/><feFuncG type="linear" slope="0" intercept="0.0"/><feFuncB type="linear" slope="0" intercept="0.0"/><feFuncA type="linear" slope="0.17" intercept="0"/></feComponentTransfer></filter></defs><g id="p.1"><path fill="#b02b20" d="m0 0l86.614174 0l0 100.062996l-86.614174 0z" fill-rule="evenodd"/></g><path fill="#be2f22" d="m0 0l94.11024 0l0 100.09449l-94.11024 0z" fill-rule="evenodd"/><path fill="#ffffff" d="m52.95355 46.358494q0 1.09375 -0.4375 2.140625q-0.4375 1.046875 -1.15625 2.046875q-0.703125 1.0 -1.609375 1.96875q-0.890625 0.96875 -1.828125 1.90625q-0.515625 0.53125 -1.21875 1.265625q-0.6875 0.71875 -1.3125 1.484375q-0.625 0.75 -1.046875 1.484375q-0.40625 0.71875 -0.40625 1.25l9.875 0l0 2.421875l-13.0 0q-0.03125 -0.171875 -0.03125 -0.359375q0 -0.1875 0 -0.375q0 -1.453125 0.484375 -2.6875q0.484375 -1.25 1.25 -2.359375q0.765625 -1.109375 1.71875 -2.09375q0.953125 -1.0 1.890625 -1.9375q0.75 -0.75 1.453125 -1.484375q0.71875 -0.734375 1.25 -1.453125q0.546875 -0.734375 0.875 -1.515625q0.328125 -0.78125 0.328125 -1.609375q0 -0.9375 -0.296875 -1.59375q-0.28125 -0.65625 -0.796875 -1.078125q-0.5 -0.4375 -1.15625 -0.640625q-0.65625 -0.21875 -1.421875 -0.21875q-0.90625 0 -1.65625 0.25q-0.734375 0.234375 -1.3125 0.578125q-0.5625 0.34375 -0.984375 0.671875q-0.40625 0.328125 -0.625 0.546875l-1.421875 -2.015625q0.28125 -0.3125 0.828125 -0.75q0.5625 -0.453125 1.34375 -0.859375q0.78125 -0.40625 1.75 -0.671875q0.96875 -0.28125 2.078125 -0.28125q3.359375 0 4.96875 1.546875q1.625 1.53125 1.625 4.421875z" fill-rule="nonzero"/></g></svg>