<?xml version="1.0" encoding="UTF-8" standalone="yes"?>

<svg xmlns="http://www.w3.org/2000/svg" height="360" width="480"
     version="1.1" viewBox="0 0 480 360">

<rect x="0" y="0" width="480" height="360" fill="none" />

<g transform="translate(0, 0)">
<rect x="10" y="10" width="420" height="150" stroke="black" fill="#c0c0c0" />

<text x="220" y="35" font-family="Ubuntu" font-size="18"
	  text-anchor="middle" dominant-baseline="text-after-edge"
      fill="black">Debian package A</text>

<rect x="20" y="52" width="160" height="95" stroke="black" fill="none"
	  stroke-dasharray="3,2" />
<text x="100" y="107" font-family="Ubuntu" font-size="15"
	  text-anchor="middle" dominant-baseline="text-after-edge"
      fill="black">A_slice1</text>
<rect x="150" y="45" width="160" height="95" stroke="black" fill="none"
	  stroke-dasharray="3,2" />
<text x="230" y="100" font-family="Ubuntu" font-size="15"
	  text-anchor="middle" dominant-baseline="text-after-edge"
      fill="black">A_slice2</text>
<rect x="320" y="45" width="90" height="95" stroke="#505050" fill="none"
	  stroke-dasharray="3,2" />
<text x="365" y="100" font-family="Ubuntu" font-size="15"
	  text-anchor="middle" dominant-baseline="text-after-edge"
      fill="#505050">A_slice3</text>
</g>

<g transform="translate(40, 220)">
<rect x="10" y="10" width="380" height="120" stroke="black" fill="#c0c0c0" />

<text x="200" y="125" font-family="Ubuntu" font-size="18"
	  text-anchor="middle" dominant-baseline="text-after-edge"
      fill="black">Debian package B</text>

<rect x="20" y="20" width="140" height="75" stroke="black" fill="none"
	  stroke-dasharray="3,2" />
<text x="90" y="65" font-family="Ubuntu" font-size="15"
	  text-anchor="middle" dominant-baseline="text-after-edge"
      fill="black">B_slice1</text>

<rect x="170" y="20" width="210" height="75" stroke="black" fill="none"
	  stroke-dasharray="3,2" />
<text x="275" y="65" font-family="Ubuntu" font-size="15"
	  text-anchor="middle" dominant-baseline="text-after-edge"
      fill="black">B_slice2</text>

<path d="M 60,20 l 0,-85" stroke="black" fill="none"
      stroke-dasharray="3,2" />
<path d="M 60,-73 l 4,8 -8,0 z" stroke="black" fill="none" />

<path d="M 190,20 c 0,-73 -110,-20 -110,-85" stroke="black" fill="none"
      stroke-dasharray="3,2" />
<path d="M 80,-73 l 4,8 -8,0 z" stroke="black" fill="none" />

<path d="M 230,20 l 0,-92" stroke="black" fill="none"
      stroke-dasharray="3,2" />
<path d="M 230,-80 l 4,8 -8,0 z" stroke="black" fill="none" />

<path d="M 390,35 c 50,-20 60,-75 7,-105" stroke="black" fill="none" />
<path d="M 397,-70 l 2,-3 -8,-1 4,7 z" stroke="black" fill="none" />
</g>
</svg>
